<?xml version="1.0" standalone="no"?>
<!DOCTYPE svg PUBLIC "-//W3C//DTD SVG 20010904//EN"
 "http://www.w3.org/TR/2001/REC-SVG-20010904/DTD/svg10.dtd">
<svg version="1.0" xmlns="http://www.w3.org/2000/svg"
 width="512.000000pt" height="512.000000pt" viewBox="0 0 512.000000 512.000000"
 preserveAspectRatio="xMidYMid meet">
<metadata>
Created by potrace 1.14, written by Peter Selinger 2001-2017
</metadata>
<g transform="translate(0.000000,512.000000) scale(0.100000,-0.100000)"
fill="#000000" stroke="none">
<path d="M1151 4944 c-114 -31 -229 -120 -290 -226 -65 -115 -61 5 -61 -1924
0 -1734 0 -1753 20 -1818 41 -133 155 -255 287 -307 51 -20 79 -24 236 -27
l177 -4 0 -214 c0 -215 0 -215 25 -239 15 -16 35 -25 56 -25 28 0 51 18 176
142 l143 142 143 -142 c125 -124 148 -142 176 -142 21 0 41 9 56 25 25 24 25
24 25 239 l0 216 888 2 887 3 50 27 c60 32 114 87 146 148 l24 45 3 1917 2
1917 -21 58 c-30 78 -104 152 -182 181 l-58 22 -1427 -1 c-1217 0 -1435 -2
-1481 -15z m1479 -714 c146 -23 278 -119 355 -259 l40 -72 75 7 c202 18 324
-18 437 -132 181 -181 180 -486 -3 -669 -47 -48 -156 -111 -236 -138 -17 -6
-18 -27 -18 -247 l0 -240 -720 0 -720 0 0 240 c0 220 -1 241 -17 247 -58 19
-184 87 -219 117 -52 45 -104 123 -134 201 -33 85 -33 214 -1 308 72 211 285
344 508 316 118 -15 113 -17 158 63 88 158 237 254 415 267 8 0 44 -4 80 -9z
m1530 -3027 c0 -131 -5 -256 -10 -277 -11 -51 -65 -105 -116 -116 -22 -5 -411
-10 -876 -10 l-838 0 0 120 0 120 775 0 776 0 24 25 c33 32 33 78 0 110 l-24
25 -1271 0 -1271 0 -24 -25 c-33 -32 -33 -78 0 -110 22 -23 32 -25 120 -25
l95 0 0 -121 0 -122 -153 5 c-136 4 -159 7 -208 30 -77 35 -124 80 -160 153
-56 114 -37 248 49 346 39 44 119 88 180 99 26 4 696 8 1490 9 l1442 1 0 -237z"/>
</g>
</svg>
